<?xml version="1.0" encoding="UTF-8" standalone="no"?>
<svg width="120px" height="120px" viewBox="0 0 120 120" version="1.1" xmlns="http://www.w3.org/2000/svg">
    <title>logo</title>
    <defs/>
    <g id="Page-1" stroke="none" stroke-width="1" fill="none" fill-rule="evenodd">
        <g id="logo" fill="#FFFFFF">
            <path d="M66.7464413,71.439989 L67.0318344,71.439989 L67.0318344,74.8909069 L66.7464413,74.8909069 L66.7464413,71.439989 Z M72.067854,72.6386403 L71.6074821,72.6386403 L71.6074821,74.4520565 C71.6074821,74.5540494 71.6187107,74.6270352 71.6477178,74.6560424 C71.6739179,74.6925353 71.7207036,74.7075067 71.7908823,74.7075067 C71.8198894,74.7075067 71.8526395,74.7075067 71.8891324,74.700021 C71.9256253,74.6925353 71.9845753,74.6850496 72.0650468,74.6710138 L72.067854,74.8974569 C71.998611,74.9124284 71.933111,74.9264641 71.8741609,74.9414356 C71.8161466,74.9489213 71.7646822,74.9489213 71.7141536,74.9489213 C71.5672463,74.9489213 71.4689962,74.9124284 71.4063033,74.8459926 C71.3482889,74.7655211 71.3192818,74.6420067 71.3192818,74.4520565 L71.3192818,72.6386403 L70.9824243,72.6386403 L70.9824243,72.4047115 L71.3192818,72.4047115 L71.3192818,71.6879536 L71.6074821,71.6879536 L71.6074821,72.4047115 L72.067854,72.4047115 L72.067854,72.6386403 Z M73.885013,71.6804679 L73.8560058,71.6804679 C73.7933129,71.6729821 73.7493343,71.6729821 73.72407,71.6729821 C73.6145913,71.6729821 73.5416055,71.6954393 73.4976269,71.7394179 C73.4536483,71.7833965 73.4321268,71.863868 73.4321268,71.9733467 L73.4321268,72.4047115 L73.885013,72.4047115 L73.885013,72.6386403 L73.4321268,72.6386403 L73.4321268,74.8899712 L73.1467337,74.8899712 L73.1467337,72.6386403 L72.780869,72.6386403 L72.780869,72.4047115 L73.1467337,72.4047115 L73.1467337,71.9443396 C73.1467337,71.7609394 73.1944552,71.6224535 73.2852195,71.541982 C73.3806625,71.4540248 73.5303769,71.4100461 73.7352986,71.4100461 C73.7605629,71.4100461 73.7830201,71.4100461 73.8045415,71.4175319 C73.826063,71.4175319 73.8560058,71.4175319 73.885013,71.4250176 L73.885013,71.6804679 Z M78.9912112,72.6386403 L78.9509755,72.6386403 C78.7058181,72.6386403 78.5196107,72.7116261 78.3951606,72.8575977 C78.2707105,73.004505 78.2089533,73.2234623 78.2089533,73.5154055 L78.2089533,74.8899712 L77.9132672,74.8899712 L77.9132672,72.4047115 L78.190239,72.4047115 L78.190239,72.8360762 C78.2641605,72.6676475 78.3624106,72.5431973 78.4906036,72.4627258 C78.6150537,72.3822543 78.775061,72.3392114 78.9584612,72.3392114 L78.9912112,72.3392114 L78.9912112,72.6386403 Z M83.2346799,74.8899712 L82.9427368,74.8899712 L82.9427368,73.1794837 C82.9427368,72.9670763 82.902501,72.8211048 82.8182867,72.7256618 C82.7378151,72.6386403 82.6058793,72.5946617 82.419672,72.5946617 C82.2007146,72.5946617 82.0210572,72.6601617 81.8900571,72.7995833 C81.7581213,72.9305835 81.6926212,73.1064979 81.6926212,73.332941 L81.6926212,74.8899712 L81.407228,74.8899712 L81.407228,73.2084909 C81.407228,73.004505 81.3632494,72.8510477 81.2752922,72.748119 C81.1910778,72.646126 81.0563348,72.5946617 80.8813561,72.5946617 C80.661463,72.5946617 80.4864842,72.6676475 80.3545484,72.807069 C80.2198054,72.9455549 80.1496267,73.1280194 80.1496267,73.3553982 L80.1496267,74.8899712 L79.8651693,74.8899712 L79.8651693,72.4047115 L80.135591,72.4047115 L80.135591,72.813619 C80.2160625,72.6601617 80.3255412,72.5431973 80.4602842,72.4627258 C80.5959629,72.3747686 80.7494202,72.3392114 80.924399,72.3392114 C81.1077992,72.3392114 81.2612565,72.3822543 81.3857066,72.4627258 C81.509221,72.5506831 81.5896925,72.6676475 81.6299283,72.8285905 C81.7141426,72.6676475 81.8236213,72.5431973 81.9593,72.4627258 C82.094043,72.3822543 82.2512432,72.3392114 82.4309005,72.3392114 C82.7013222,72.3392114 82.8987582,72.4047115 83.0335012,72.5431973 C83.1691799,72.6751332 83.2346799,72.8800548 83.2346799,73.1579623 L83.2346799,74.8899712 Z M86.9700553,71.6804679 L86.9410481,71.6804679 C86.8792909,71.6729821 86.8353123,71.6729821 86.8091123,71.6729821 C86.7033764,71.6729821 86.6266478,71.6954393 86.5826692,71.7394179 C86.5386905,71.7833965 86.5171691,71.863868 86.5171691,71.9733467 L86.5171691,72.4047115 L86.9700553,72.4047115 L86.9700553,72.6386403 L86.5171691,72.6386403 L86.5171691,74.8899712 L86.2317759,74.8899712 L86.2317759,72.6386403 L85.866847,72.6386403 L85.866847,72.4047115 L86.2317759,72.4047115 L86.2317759,71.9443396 C86.2317759,71.7609394 86.2794974,71.6224535 86.3711975,71.541982 C86.4657048,71.4540248 86.6154192,71.4100461 86.8240837,71.4100461 C86.8456052,71.4100461 86.8680623,71.4100461 86.8895838,71.4175319 C86.9157838,71.4175319 86.9410481,71.4175319 86.9700553,71.4250176 L86.9700553,71.6804679 Z M88.9257002,72.6386403 L88.8854644,72.6386403 C88.6374999,72.6386403 88.4540997,72.7116261 88.3296496,72.8575977 C88.2061351,73.004505 88.1434422,73.2234623 88.1434422,73.5154055 L88.1434422,74.8899712 L87.8477562,74.8899712 L87.8477562,72.4047115 L88.1256636,72.4047115 L88.1256636,72.8360762 C88.1986494,72.6676475 88.2931567,72.5431973 88.4250925,72.4627258 C88.5495427,72.3822543 88.7067428,72.3392114 88.8929502,72.3392114 L88.9257002,72.3392114 L88.9257002,72.6386403 Z M95.5197734,74.4660922 L95.8341737,74.4660922 L95.8341737,74.8899712 L95.5197734,74.8899712 L95.5197734,74.4660922 Z M64.6083319,71.439989 L63.4059378,71.439989 L63.4059378,74.8899712 L63.7222095,74.8899712 L63.7222095,73.3918911 L64.4548746,73.3918911 C64.8862393,73.3918911 65.2071897,73.3114196 65.419597,73.1504765 C65.6320044,72.9895335 65.7377402,72.7406333 65.7377402,72.4121972 C65.7377402,72.0903111 65.6422973,71.8488966 65.4560899,71.6879536 C65.2661397,71.5195248 64.9807466,71.439989 64.6083319,71.439989 Z M65.1931539,72.9380692 C65.0396966,73.0484836 64.7982821,73.1064979 64.4586174,73.1064979 L63.7222095,73.1064979 L63.7222095,71.7244465 L64.5933604,71.7244465 C64.8750107,71.7244465 65.0836752,71.7833965 65.2146754,71.8928752 C65.3466112,72.0023539 65.4121113,72.1707827 65.4121113,72.4047115 C65.4121113,72.6536117 65.3391255,72.8285905 65.1931539,72.9380692 Z M70.2553735,74.6775639 C70.1861306,74.6775639 70.142152,74.6635281 70.1131448,74.6420067 C70.0906876,74.6195495 70.0766519,74.5540494 70.0766519,74.4520565 L70.0766519,73.0915265 C70.0766519,72.8435619 70.0036661,72.6601617 69.8455302,72.5291616 C69.6930086,72.4047115 69.4693727,72.3392114 69.1699438,72.3392114 C68.8705149,72.3392114 68.6291004,72.4121972 68.4531859,72.5581688 C68.2782072,72.6975904 68.1902499,72.8940906 68.1827642,73.1429908 L68.4644145,73.1429908 C68.4756431,72.9605263 68.5374003,72.8211048 68.6581076,72.7331475 C68.775072,72.6386403 68.9435007,72.5946617 69.1699438,72.5946617 C69.3889012,72.5946617 69.5461013,72.6386403 69.6452872,72.7191118 C69.7397944,72.7995833 69.783773,72.9380692 69.783773,73.1355051 C69.783773,73.2889624 69.6668086,73.3918911 69.4328798,73.4424197 C69.3963869,73.4499054 69.3673797,73.4499054 69.3486654,73.4573911 C69.3159154,73.4573911 69.264451,73.4648769 69.198951,73.4714269 C68.8480578,73.493884 68.6029004,73.5378627 68.4531859,73.6108484 C68.3249929,73.6688628 68.2267428,73.75027 68.1612427,73.8597487 C68.0910641,73.9692274 68.0583141,74.0861918 68.0583141,74.2321634 C68.0583141,74.4520565 68.1322356,74.6195495 68.28195,74.7589711 C68.4316645,74.8824855 68.6291004,74.9489213 68.8808078,74.9489213 C69.0567223,74.9489213 69.2214081,74.9124284 69.3748654,74.8459926 C69.5283227,74.7730068 69.6668086,74.6710138 69.7987445,74.5315923 L69.7987445,74.5680852 C69.7987445,74.6850496 69.8277516,74.7655211 69.8867017,74.8244711 C69.9484589,74.8824855 70.040159,74.9124284 70.1571234,74.9124284 C70.1861306,74.9124284 70.2151378,74.9124284 70.2516306,74.9049427 C70.2881235,74.9049427 70.3246164,74.8974569 70.3611093,74.8899712 L70.3611093,74.6710138 C70.3433307,74.6775639 70.3246164,74.6775639 70.3105807,74.6775639 L70.2553735,74.6775639 Z M69.783773,73.9327345 C69.783773,74.1666633 69.7033015,74.3491278 69.5461013,74.4876137 C69.3889012,74.6195495 69.1774295,74.6925353 68.9135578,74.6925353 C68.7423219,74.6925353 68.6066432,74.6485567 68.5046502,74.5680852 C68.4026573,74.4801279 68.3549358,74.3706492 68.3549358,74.2246777 C68.3549358,74.1011632 68.4026573,73.9907488 68.4934217,73.9037273 C68.5888646,73.8157701 68.7273505,73.75027 68.9135578,73.6988057 C69.1774295,73.6838342 69.3673797,73.6688628 69.488087,73.6548271 C69.6087943,73.6323699 69.7033015,73.6108484 69.783773,73.589327 L69.783773,73.9327345 Z M75.7751579,72.3392114 C75.413036,72.3392114 75.1351286,72.4486901 74.9339498,72.6826189 C74.7327711,72.909062 74.6382638,73.2309481 74.6382638,73.6473413 C74.6382638,74.0637346 74.7327711,74.3856207 74.9339498,74.6120638 C75.1351286,74.8385069 75.413036,74.9489213 75.7751579,74.9489213 C76.1400868,74.9489213 76.4217371,74.8385069 76.619173,74.6120638 C76.8240947,74.3856207 76.9186019,74.0637346 76.9186019,73.6473413 C76.9186019,73.2309481 76.8203518,72.909062 76.619173,72.6826189 C76.4217371,72.4486901 76.1363439,72.3392114 75.7751579,72.3392114 Z M76.3992799,74.4295993 C76.2533084,74.6120638 76.0446439,74.700021 75.7751579,74.700021 C75.5075433,74.700021 75.3035574,74.6120638 75.1529072,74.4221136 C75.0069356,74.2396491 74.9339498,73.9832631 74.9339498,73.6473413 C74.9339498,73.3114196 75.0069356,73.0550336 75.1529072,72.8725691 C75.3035574,72.6826189 75.5075433,72.5946617 75.7751579,72.5946617 C76.0446439,72.5946617 76.2533084,72.6826189 76.3992799,72.8725691 C76.5461872,73.0484836 76.619173,73.3114196 76.619173,73.6473413 C76.619173,73.9832631 76.5461872,74.2471348 76.3992799,74.4295993 Z M90.7643807,72.3392114 C90.4209732,72.3392114 90.1542943,72.4561758 89.9606013,72.6901046 C89.7697154,72.9165477 89.6752081,73.2449838 89.6752081,73.6623128 C89.6752081,74.0637346 89.7697154,74.3856207 89.9606013,74.6120638 C90.1505515,74.8459926 90.4172303,74.956407 90.756895,74.956407 C91.0385453,74.956407 91.2762169,74.8824855 91.4624243,74.7290282 C91.6486316,74.5755709 91.759046,74.3706492 91.7880532,74.1226847 L91.50266,74.1226847 C91.4736529,74.3051492 91.3931813,74.4445707 91.2612455,74.5540494 C91.1302454,74.6560424 90.9693023,74.7075067 90.7756093,74.7075067 C90.5304519,74.7075067 90.3330159,74.6195495 90.1870444,74.437085 C90.0410728,74.2611706 89.9671513,74.019756 89.9671513,73.7128414 L89.9671513,73.6988057 L91.8245461,73.6988057 L91.8245461,73.6033627 C91.8245461,73.2019409 91.7291031,72.8940906 91.5466386,72.6676475 C91.3566884,72.4486901 91.1003025,72.3392114 90.7643807,72.3392114 Z M89.9671513,73.4648769 C89.9821227,73.2019409 90.0625942,72.9895335 90.2010801,72.8285905 C90.3479874,72.6676475 90.5304519,72.5871759 90.7606378,72.5871759 C90.9833381,72.5871759 91.1667382,72.6676475 91.3052241,72.8211048 C91.4409028,72.9820478 91.5176315,73.1944552 91.5279243,73.4714269 L89.9671513,73.4648769 Z M93.5934573,72.3392114 C93.2500498,72.3392114 92.983371,72.4561758 92.7896779,72.6901046 C92.598792,72.9165477 92.5042847,73.2449838 92.5042847,73.6623128 C92.5042847,74.0637346 92.598792,74.3856207 92.7896779,74.6120638 C92.9796281,74.8459926 93.2463069,74.956407 93.5859716,74.956407 C93.8676219,74.956407 94.1052936,74.8824855 94.2915009,74.7290282 C94.4777082,74.5755709 94.5881226,74.3706492 94.6171298,74.1226847 L94.3317366,74.1226847 C94.3027295,74.3051492 94.222258,74.4445707 94.0903221,74.5540494 C93.959322,74.6560424 93.7983789,74.7075067 93.6046859,74.7075067 C93.3595285,74.7075067 93.1620926,74.6195495 93.016121,74.437085 C92.8701494,74.2611706 92.7962279,74.019756 92.7962279,73.7128414 L92.7962279,73.6988057 L94.6536227,73.6988057 L94.6536227,73.6033627 C94.6536227,73.2019409 94.5581797,72.8940906 94.3757153,72.6676475 C94.1857651,72.4486901 93.9293791,72.3392114 93.5934573,72.3392114 Z M92.7962279,73.4648769 C92.8111993,73.2019409 92.8916709,72.9895335 93.0301567,72.8285905 C93.177064,72.6676475 93.3595285,72.5871759 93.5897144,72.5871759 C93.8124147,72.5871759 93.9958149,72.6676475 94.1343007,72.8211048 C94.2699794,72.9820478 94.3467081,73.1944552 94.357001,73.4714269 L92.7962279,73.4648769 Z M34.1171143,59.1587262 C34.1171143,60.5838205 33.6108923,61.7974432 32.6003198,62.7986586 C31.5981688,63.8073596 30.3892247,64.3117101 28.9706803,64.3117101 C27.5614931,64.3117101 26.3497419,63.7998739 25.3335551,62.7911728 C24.3211112,61.7759218 23.8167606,60.5697848 23.8167606,59.1587262 L23.8167606,50.5838315 L20.384557,50.5838315 L20.384557,59.1587262 C20.384557,61.5195358 21.2238936,63.5369379 22.9035025,65.2184182 C24.58779,66.8998986 26.6117421,67.7476566 28.9706803,67.7476566 C31.3249399,67.7476566 33.342342,66.8998986 35.0200795,65.2184182 C36.6716169,63.5743665 37.5146964,61.6000073 37.5474464,59.3046978 L37.5474464,50.5838315 L34.1171143,50.5838315 L34.1171143,59.1587262 Z M53.796142,50.4228885 L51.4914753,50.4228885 C50.6689816,50.4228885 49.9129237,50.6343601 49.2204944,51.0732106 C48.5056079,50.6343601 47.7486142,50.4228885 46.9485777,50.4228885 L42.8913163,50.4228885 C41.7029579,50.4228885 40.6858354,50.8392818 39.8408845,51.6720684 C38.9987408,52.5057907 38.5748618,53.5144917 38.5748618,54.706593 L38.5748618,67.4267063 L42.6339946,67.4267063 L42.6339946,54.706593 C42.6339946,54.5531357 42.7191447,54.4792141 42.8913163,54.4792141 L46.9485777,54.4792141 C47.102035,54.4792141 47.1768922,54.5531357 47.1768922,54.706593 L47.1768922,67.4267063 L51.2341536,67.4267063 L51.2341536,54.706593 C51.2341536,54.5531357 51.318368,54.4792141 51.4914753,54.4792141 L53.796142,54.4792141 C53.9477279,54.4792141 54.0225851,54.5531357 54.0225851,54.706593 L54.0225851,67.4267063 L58.0779751,67.4267063 L58.0779751,54.706593 C58.0779751,53.5144917 57.6653246,52.5057907 56.8297309,51.6720684 C55.9969443,50.8392818 54.9845004,50.4228885 53.796142,50.4228885 Z M96.4666295,67.3827276 L100.647405,67.3827276 L100.647405,55.9707443 L99.4524969,55.9707443 C98.8929392,55.9707443 98.4325673,55.5103724 98.4325673,54.9554932 L98.4325673,52.3083547 C98.4325673,51.7459899 98.8929392,51.2856179 99.4524969,51.2856179 L100.647405,51.2856179 L100.647405,49.9475451 L98.0376954,49.9475451 C97.1759017,49.9475451 96.4666295,50.6568173 96.4666295,51.518611 L96.4666295,67.3827276 Z M86.849348,50.8907461 L82.3944076,50.8907461 L82.3944076,43.4920455 L78.2856819,43.4920455 L78.2856819,51.8695043 L78.3006534,51.8695043 L78.3006534,59.3917193 C78.3408891,64.0047955 82.094043,67.7476566 86.7183479,67.7476566 C91.3707242,67.7476566 95.1360424,63.9608169 95.1360424,59.3121835 C95.1360424,54.7356001 91.4586814,50.8907461 86.849348,50.8907461 Z M86.7183479,63.6398666 C84.3238525,63.6398666 82.3944076,61.709486 82.3944076,59.3121835 L82.3944076,59.0632832 L82.3944076,54.9845004 L86.7950765,54.9845004 C89.1558861,54.9845004 91.0563238,56.9654096 91.0563238,59.3121835 C91.0563238,61.709486 89.1119075,63.6398666 86.7183479,63.6398666 Z M105.05556,46.0072481 C103.981359,46.0072481 103.122372,46.8409704 103.122372,47.8861644 C103.122372,48.9463298 103.981359,49.7866021 105.05556,49.7866021 C106.144732,49.7866021 106.978455,48.9463298 106.978455,47.8861644 C106.978455,46.8409704 106.144732,46.0072481 105.05556,46.0072481 Z M105.066789,49.3842445 C104.222773,49.3842445 103.601458,48.718951 103.601458,47.8861644 C103.601458,47.0599278 104.222773,46.3871485 105.05556,46.3871485 C105.893025,46.3871485 106.496561,47.0599278 106.496561,47.8936501 C106.496561,48.718951 105.893025,49.3842445 105.066789,49.3842445 Z M105.490668,47.9441787 L105.490668,47.9151716 C105.720853,47.8496715 105.881797,47.6887285 105.881797,47.4838068 C105.881797,47.3013423 105.801325,47.1544351 105.695589,47.0748993 C105.55991,46.9944277 105.399903,46.9354777 105.045267,46.9354777 C104.73461,46.9354777 104.493195,46.9569991 104.324766,46.9944277 L104.324766,48.8649226 L104.756131,48.8649226 L104.756131,48.1126075 L104.964796,48.1126075 C105.202467,48.1126075 105.319432,48.2071147 105.355925,48.4120364 C105.410196,48.6319295 105.443882,48.7994225 105.501896,48.8649226 L105.969754,48.8649226 C105.925775,48.7994225 105.893025,48.6824581 105.837818,48.3980006 C105.776061,48.1491004 105.676875,48.0096788 105.490668,47.9441787 Z M104.975088,47.8056929 L104.771102,47.8056929 L104.771102,47.2648495 C104.815081,47.2573637 104.895553,47.2423923 105.012517,47.2423923 C105.282939,47.2423923 105.410196,47.3593567 105.410196,47.5277854 C105.410196,47.7252214 105.216503,47.8056929 104.975088,47.8056929 Z M73.0774907,67.3088061 C75.0948929,67.3088061 76.7464303,65.6572687 76.7464303,63.6398666 L76.7464303,54.1722995 C76.7464303,52.1548974 75.0948929,50.50336 73.0774907,50.50336 L63.6136666,50.50336 C61.5887787,50.50336 59.9372413,52.1548974 59.9372413,54.1722995 L59.9372413,63.6398666 C59.9372413,65.6572687 61.5887787,67.3088061 63.6136666,67.3088061 L73.0774907,67.3088061 Z M59.8857769,6.36754238 C89.3973007,6.36754238 113.404012,30.3742532 113.404012,59.8867127 C113.404012,89.3982364 89.3973007,113.404947 59.8857769,113.404947 C30.3742532,113.404947 6.36567095,89.3982364 6.36567095,59.8867127 C6.36567095,30.3742532 30.3742532,6.36754238 59.8857769,6.36754238 Z M63.8335596,56.3656161 C63.8335596,55.2839293 64.7178106,54.3996783 65.8032403,54.3996783 L70.8841742,54.3996783 C71.9696039,54.3996783 72.8538548,55.2839293 72.8538548,56.3656161 L72.8538548,61.44655 C72.8538548,62.5282369 71.9696039,63.4199735 70.8841742,63.4199735 L65.8032403,63.4199735 C64.7178106,63.4199735 63.8335596,62.5282369 63.8335596,61.44655 L63.8335596,56.3656161 Z M59.8857769,0 C26.8119852,0 0,26.8110495 0,59.8867127 C0,92.9614401 26.8119852,119.771554 59.8857769,119.771554 C92.9576973,119.771554 119.771554,92.9614401 119.771554,59.8867127 C119.771554,26.8110495 92.9576973,0 59.8857769,0"/>
        </g>
    </g>
</svg>